# xmcd CD database file
#
# Track frame offsets:
#	150
#	12335
#	23805
#	35596
#	47803
#	59502
#	71477
#	84572
#	95844
#	108135
#	119591
#	133742
#	144771
#	156916
#	170017
#	180863
#	192657
#	203522
#
# Disc length: 2888 seconds
#
# Revision: 0
# Processed by: cddbd v1.5.2PL0 Copyright (c) Steve Scherf et al.
# Submitted via: CDex 1.51
#
DISCID=fb0b4612
DTITLE=Hank Williams - Your Cheatin' Heart [CD2]
DYEAR=2003
DGENRE=Country
TTITLE0=Your Cheatin' Heart
TTITLE1=My Bucket's Got a Hole In It
TTITLE2=Take These Chains from My Heart
TTITLE3=Half As Much
TTITLE4=A Mansion on a Hill
TTITLE5=Long Gone Lonesome Blues
TTITLE6=Jambalaya (on the Bayou)
TTITLE7=Nobody's Lonesome for Me
TTITLE8=Howlin' at the Moon
TTITLE9=Window Shoppin'
TTITLE10=The Funeral
TTITLE11=Crazy Heart
TTITLE12=Lost Highway
TTITLE13=Wedding Bells
TTITLE14=Why Don't You Love Me
TTITLE15=Why Should We Try Anymore
TTITLE16=(I Heard That) Lonesome Whistle
TTITLE17=Mind Your Own Business
EXTD=YEAR: 2003
EXTT0=
EXTT1=
EXTT2=
EXTT3=
EXTT4=
EXTT5=
EXTT6=
EXTT7=
EXTT8=
EXTT9=
EXTT10=
EXTT11=
EXTT12=
EXTT13=
EXTT14=
EXTT15=
EXTT16=
EXTT17=
PLAYORDER=
